<svg width="50" height="50" viewBox="0 0 50 50" fill="none" xmlns="http://www.w3.org/2000/svg">
<rect x="0.5" y="0.5" width="49" height="49" rx="2.5" fill="#C5E2FF" stroke="#97C2EE"/>
<path d="M35.1984 23.0054H26.6086V14.8016C26.6086 14.319 26.4155 13.8686 26.0938 13.5147C25.7399 13.1609 25.2895 13 24.807 13C24.3244 13 23.874 13.193 23.5201 13.5147C23.1662 13.8686 23.0054 14.319 23.0054 14.8016V23.0054H14.8016C14.319 23.0054 13.8686 23.1984 13.5147 23.5201C13.1609 23.874 13 24.3244 13 24.807C13 25.7399 13.8686 26.6086 14.8016 26.6086H23.0054V35.1984C23.0054 35.681 23.1984 36.1314 23.5201 36.4853C23.874 36.8391 24.3244 37 24.807 37C25.2895 37 25.7399 36.807 26.0938 36.4853C26.4477 36.1314 26.6086 35.681 26.6086 35.1984V26.6086H35.1984C35.681 26.6086 36.1314 26.4156 36.4853 26.0938C36.8391 25.7399 37 25.2895 37 24.807C37 24.3244 36.807 23.874 36.4853 23.5201C36.1314 23.1984 35.681 23.0054 35.1984 23.0054Z" fill="#505050"/>
</svg>
