<svg width="30" height="30" viewBox="0 0 30 30" fill="none" xmlns="http://www.w3.org/2000/svg">
<rect x="0.5" y="0.5" width="29" height="29" rx="4.5" fill="#C5E2FF" stroke="#8895A2"/>
<path d="M20.3486 22.4227C21.2291 22.4227 21.9395 21.824 22.2119 21.0282C21.938 21.9024 21.182 22.4999 20.3486 22.4999H9.47197C8.63797 22.4999 7.88236 21.9025 7.60867 21.0284C7.88084 21.824 8.59069 22.4227 9.47197 22.4227H20.3486ZM9.47197 7.95669C8.59069 7.95669 7.88084 8.55533 7.60867 9.35095C7.88236 8.47679 8.63797 7.87941 9.47197 7.87941H17.3667C17.3712 7.88619 17.3767 7.89886 17.3767 7.91805C17.3767 7.93724 17.3712 7.9499 17.3667 7.95669H9.47197Z" fill="#505050" stroke="#505050"/>
<path d="M11.1297 19.968L11.4738 19.6522L11.4658 19.6278L11.4697 19.6265L11.0056 19.4326C10.9542 19.6227 11.0012 19.8274 11.1297 19.968ZM11.1297 19.968L11.4741 19.6531L11.4793 19.6691L11.6207 20.1032C11.5742 20.1177 11.5267 20.1258 11.4793 20.1258C11.3497 20.1258 11.2237 20.0703 11.1297 19.968ZM12.337 16.6485C12.3378 16.647 12.3384 16.6458 12.3389 16.6449C12.3394 16.6439 12.3399 16.6428 12.3403 16.642M12.337 16.6485L12.3404 16.6419C12.3411 16.6404 12.3409 16.6409 12.3403 16.642M12.337 16.6485L12.3403 16.642M12.337 16.6485L12.3403 16.642M22.4874 9.41805L22.4874 9.41806L22.4901 9.42098C22.49 9.4209 22.4927 9.4238 22.4954 9.43106C22.4982 9.43835 22.5002 9.44786 22.5001 9.45849V9.46023C22.5001 9.4847 22.4911 9.49836 22.4878 9.50198L22.4869 9.50295L14.1356 18.6016L14.0662 18.6772L14.0322 18.774C14.0284 18.7848 14.0243 18.7916 14.0217 18.7953L11.4917 19.6193C11.4901 19.6158 11.4885 19.6115 11.4874 19.6063C11.4843 19.5931 11.4843 19.5781 11.4882 19.5636C11.4882 19.5634 11.4883 19.5633 11.4883 19.5631L11.4929 19.5464L12.3711 19.2606L13.265 18.9697L14.0045 18.7291L13.4786 18.1562L12.8517 17.4732L12.244 16.811L12.247 16.7998C12.2497 16.7933 12.2527 16.7857 12.2558 16.7773C12.2561 16.7764 12.2573 16.7734 12.2602 16.767L12.261 16.765C12.2646 16.7567 12.2672 16.7522 12.2683 16.7503C12.2749 16.7427 12.2807 16.7355 12.2858 16.7289C12.2877 16.7265 12.2895 16.7242 12.2912 16.7219L20.7417 7.51616L22.4874 9.41805ZM14.0316 18.7921L14.0315 18.7921L14.0316 18.7921ZM13.6432 18.2916L14.0115 18.6929L14.3799 18.2916L22.176 9.79834L22.4865 9.46009L22.1758 9.12196L21.1099 7.96173L20.7416 7.56078L20.3734 7.96189L12.5778 16.4546L12.2674 16.7927L12.5778 17.1308L13.6432 18.2916Z" fill="#505050" stroke="#505050"/>
</svg>
