<svg width="50" height="50" viewBox="0 0 50 50" fill="none" xmlns="http://www.w3.org/2000/svg">
<rect x="0.5" y="0.5" width="49" height="49" rx="2.5" fill="#C5E2FF" stroke="#97C2EE"/>
<path d="M28.6384 13L33.6651 18.0939V21.7866H35V32.6247H33.6651V33.9717C33.6651 34.5097 33.4546 35.0256 33.0798 35.4059C32.705 35.7863 32.1967 36 31.6667 36H18.3333C17.8033 36 17.295 35.7863 16.9202 35.4059C16.5454 35.0256 16.3349 34.5097 16.3349 33.9717V32.617H15V21.7789H16.3349V15.0283C16.3349 14.4903 16.5454 13.9744 16.9202 13.5941C17.295 13.2137 17.8033 13 18.3333 13H28.6384ZM31.6896 32.617H18.3333V33.964H31.6667L31.6896 32.617ZM23.0397 24.7439H19.8513V29.5823H23.0473V28.6069H21.0488V27.5927H22.7803V26.687H21.0488V25.7193H23.0397V24.7439ZM24.5652 24.7439H23.2914L24.5423 27.1128L23.1617 29.5823H24.4508L25.3738 27.8172L26.2967 29.5823H27.5782L26.2052 27.1128L27.4561 24.7439H26.1899L25.3738 26.416L24.5652 24.7439ZM28.9664 24.7439H27.7613V29.5823H30.8124V28.6069H28.9588V24.7361L28.9664 24.7439ZM26.9069 15.0283H18.3333V21.7866H31.6667V20.4009H26.8993V15.0283H26.9069ZM28.9054 16.1276V18.3726H31.1022L28.9054 16.1276Z" fill="#505050"/>
</svg>
