<svg width="17" height="17" viewBox="0 0 17 17" fill="none" xmlns="http://www.w3.org/2000/svg">
<path d="M11.8072 7.46814H1.73638C1.06199 7.46814 0.5 8.03013 0.5 8.70452C0.5 9.3789 1.06199 9.94089 1.73638 9.94089H11.8297C12.5041 9.94089 13.0661 9.3789 13.0661 8.70452C13.0436 8.00765 12.5041 7.46814 11.8072 7.46814Z" fill="#505050"/>
<path d="M7.44619 0.386719H1.73638C1.06199 0.386719 0.5 0.948708 0.5 1.62309C0.5 2.29748 1.06199 2.85947 1.73638 2.85947H7.44619C8.12057 2.85947 8.68256 2.29748 8.68256 1.62309C8.68256 0.948708 8.12057 0.386719 7.44619 0.386719Z" fill="#505050"/>
<path d="M15.7411 14.5261H1.73638C1.06199 14.5261 0.5 15.0881 0.5 15.7624C0.5 16.4368 1.06199 16.9988 1.73638 16.9988H15.7636C16.438 16.9988 17 16.4368 17 15.7624C16.9775 15.0881 16.438 14.5261 15.7411 14.5261Z" fill="#505050"/>
</svg>
