<svg width="27" height="27" viewBox="0 0 27 27" fill="none" xmlns="http://www.w3.org/2000/svg">
<path d="M18.1048 16.1276C18.349 15.8024 18.5756 15.4643 18.7836 15.1149C18.9255 14.8718 19.0572 14.6085 19.1737 14.3705C20.1881 12.2269 20.4129 9.79414 19.8083 7.50107C19.2038 5.20801 17.8088 3.2019 15.8692 1.8364C13.9297 0.470904 11.5701 -0.166301 9.20653 0.0371206C6.84293 0.240542 4.62706 1.27153 2.94956 2.94833C1.27206 4.62512 0.240643 6.84006 0.0371362 9.20267C-0.166371 11.5653 0.471102 13.9239 1.83717 15.8626C3.20324 17.8013 5.21019 19.1957 7.50422 19.8C9.79825 20.4043 12.232 20.1796 14.3766 19.1656C14.6298 19.0441 14.8831 18.9125 15.1263 18.7707C15.4755 18.564 15.8136 18.3392 16.1394 18.0972L23.2971 26.2646C23.4852 26.486 23.7176 26.6657 23.9793 26.7921C24.241 26.9186 24.5262 26.989 24.8167 26.9988C25.1 27.0083 25.3824 26.9607 25.6469 26.8589C25.9114 26.757 26.1527 26.603 26.3564 26.406C26.5602 26.209 26.7221 25.973 26.8327 25.7121C26.9433 25.4512 27.0002 25.1707 27 24.8873V24.8114C26.9911 24.5214 26.9216 24.2364 26.796 23.9748C26.6703 23.7132 26.4914 23.4807 26.2706 23.2924L18.1048 16.1276ZM15.7544 15.7478C15.2593 16.2432 14.7046 16.6752 14.103 17.0339L14.0422 17.0694C12.3443 18.0336 10.3539 18.3489 8.44096 17.9566C6.52799 17.5642 4.82262 16.4909 3.64182 14.9362C2.46101 13.3814 1.88511 11.451 2.02115 9.50379C2.15719 7.55653 2.99593 5.72488 4.38145 4.3493C5.76697 2.97371 7.60504 2.14777 9.55399 2.02499C11.5029 1.90221 13.4302 2.49094 14.9775 3.68176C16.5249 4.87258 17.587 6.58448 17.9666 8.49926C18.3461 10.414 18.0172 12.4014 17.0411 14.092C16.6819 14.6947 16.2498 15.2509 15.7544 15.7478Z" fill="#9F9F9F"/>
</svg>
