<svg width="20" height="16" viewBox="0 0 20 16" fill="none" xmlns="http://www.w3.org/2000/svg">
<path d="M18.2941 6.42163C18.3309 6.22958 18.3513 6.03353 18.3513 5.84148C18.3513 4.08104 16.8571 2.64867 15.0199 2.64867C14.7913 2.64867 14.5626 2.66868 14.3381 2.71669C13.791 1.12028 12.207 0 10.4229 0C8.6102 0 7.02615 1.13629 6.49133 2.7647C6.20147 2.68468 5.90752 2.64867 5.60541 2.64867C3.76824 2.64867 2.27401 4.08104 2.27401 5.84148C2.27401 5.9215 2.27809 6.00152 2.28626 6.08154C0.996154 6.26559 0 7.33786 0 8.63019C0 10.0505 1.20437 11.2028 2.68227 11.2028L2.78433 11.1988C2.80066 11.2028 2.81699 11.2028 2.83332 11.2028H4.0826V10.4627C4.0826 9.87051 4.53577 9.37838 5.11958 9.30636C4.76031 8.84224 4.79297 8.18208 5.22164 7.76597L6.29129 6.7217C6.50766 6.50165 6.80977 6.37762 7.1323 6.37762C7.40175 6.37762 7.65487 6.46164 7.86309 6.62168C7.93657 6.04553 8.43873 5.60142 9.04296 5.60142H10.5535C11.1577 5.60142 11.6599 6.04553 11.7334 6.61768C11.9375 6.46564 12.1947 6.37762 12.4642 6.37762C12.7867 6.37762 13.0888 6.50165 13.3134 6.72971L14.3748 7.76197C14.8035 8.18208 14.8362 8.84624 14.4769 9.30636C15.0607 9.37838 15.5139 9.87051 15.5139 10.4627V11.2028H16.9142C18.3921 11.2028 19.5965 10.0505 19.5965 8.63019C19.5965 7.71796 19.0943 6.88175 18.2941 6.42163Z" fill="#82C2FC"/>
<path d="M5.27428 10.0943C5.06607 10.0943 4.89868 10.2623 4.89868 10.4624V11.9388C4.89868 12.1428 5.07015 12.3069 5.27428 12.3069H6.20511C6.27044 12.5149 6.35617 12.715 6.45823 12.907L5.79685 13.5552C5.64988 13.6992 5.64988 13.9313 5.79685 14.0753L6.86241 15.1196C7.00938 15.2636 7.25026 15.2636 7.39723 15.1196L8.05453 14.4714C8.25049 14.5754 8.45462 14.6555 8.66692 14.7235V15.6317C8.66692 15.8358 8.83839 15.9998 9.04252 15.9998H10.549C10.7572 15.9998 10.9246 15.8318 10.9246 15.6317V14.7235C11.1369 14.6555 11.341 14.5754 11.537 14.4714L12.1943 15.1196C12.3413 15.2636 12.5821 15.2636 12.7291 15.1196L13.7947 14.0753C13.9416 13.9313 13.9416 13.6992 13.7947 13.5552L13.1333 12.907C13.2353 12.715 13.3211 12.5149 13.3864 12.3069H14.3172C14.5254 12.3069 14.6928 12.1388 14.6928 11.9388V10.4624C14.6928 10.2583 14.5214 10.0943 14.3172 10.0943H13.3905C13.3252 9.88625 13.2394 9.6862 13.1374 9.49415L13.7987 8.84999C13.9457 8.70595 13.9457 8.46989 13.7987 8.32586L12.7332 7.28559C12.5862 7.13755 12.3453 7.13755 12.1984 7.28559L11.5411 7.92975C11.3451 7.82973 11.141 7.74571 10.9287 7.68169V6.76946C10.9287 6.56541 10.7572 6.40137 10.5531 6.40137H9.0466C8.83839 6.40137 8.671 6.56941 8.671 6.76946V7.68169C8.45871 7.74571 8.25458 7.82973 8.05861 7.92975L7.40131 7.28559C7.25434 7.13755 7.01347 7.13755 6.86649 7.28559L5.80094 8.32586C5.65396 8.46989 5.65396 8.70595 5.80094 8.84999L6.46232 9.49415C6.36025 9.6862 6.27452 9.88625 6.2092 10.0943H5.27428ZM9.7978 9.43414C10.794 9.43414 11.6023 10.2263 11.6023 11.2026C11.6023 12.1788 10.794 12.971 9.7978 12.971C8.80165 12.971 7.99329 12.1788 7.99329 11.2026C7.99329 10.2263 8.80165 9.43414 9.7978 9.43414Z" fill="#82C2FC"/>
</svg>
